# xmcd
#
# Track frame offsets:
#	150
#	13765
#	23487
#	37225
#	51410
#	64032
#	76395
#	93675
#	102975
#	112450
#	126075
#	138567
#	150467
#	160080
#	174027
#
# Disc length: 2492 seconds
#
# Revision: 3
# Processed by: cddbd v1.5.1PL0 Copyright (c) Steve Scherf et al.
# Submitted via: audiograbber 1.83.01
#
DISCID=c709ba0f
DTITLE=Various Artist - Classic Country 1970-1974
DYEAR=1999
DGENRE=Country
TTITLE0=Loretta Lynn - Coal Miner's Daughter
TTITLE1=Mel Tillis - I Ain't Never
TTITLE2=Barbara Fairchild - Teddy Bear Song
TTITLE3=George Jones - The Grand Tour
TTITLE4=Donna Fargo - Funny Face
TTITLE5=Merle Haggard - If We Make It Through December
TTITLE6=Ray Price - For The Good Times
TTITLE7=Charlie Pride - Kiss An Angel Good Mornin'
TTITLE8=Dottie West - Country Sunshine
TTITLE9=Conway Twitty - You've Never Been This Far Before
TTITLE10=Charlie Rich - A Very Special Love Song
TTITLE11=Tammy Wynette - He Loves Me All The Way
TTITLE12=Tom T. Hall - I Love
TTITLE13=Dolly Parton - Coat Of Many Colors
TTITLE14=The Statler Brothers - Do You Remember These
EXTD=
EXTT0=
EXTT1=
EXTT2=
EXTT3=
EXTT4=
EXTT5=
EXTT6=
EXTT7=
EXTT8=
EXTT9=
EXTT10=
EXTT11=
EXTT12=
EXTT13=
EXTT14=
PLAYORDER=
